/* XPM */
static char * bottom_left_active_xpm[] = {
"16 17 6 1",
"       c None",
".      c #000000",
"+      c #6EA0CD s active_hilight_1",
"@      c #3E566B s active_shadow_2",
"#	c #D5D6D5 s inactive_hilight_2",
"%	c #567B9C s inactive_mid_1",
"            ###@",
"            ###@",
"            ###@",
"            ###@",
"            ###@",
"            ###@",
"            ###@",
"            ###@",
"            ###@",
"            ###@",
"            ###@",
"            ###@",
"%%%%%%%%%%%%%%%@",
"###############@",
"###############@",
"###############@",
"@@@@@@@@@@@@@@@@"};
