/* XPM */
static char * bottom_active_xpm[] = {
"32 5 4 1",
" 	c None",
".	c #000000",
"@	c #3E566B s active_color_1",
"#	c #D5D6D5 s active_hilight_1",
"@@@@@@@@@@@@@@@@@@@@@@@@@@@@@@@@",
"@@@@@@@@@@@@@@@@@@@@@@@@@@@@@@@@",
"@@@@@@@@@@@@@@@@@@@@@@@@@@@@@@@@",
"################################",
"@@@@@@@@@@@@@@@@@@@@@@@@@@@@@@@@"};
