/* XPM */
static char * bottom_active_xpm[] = {
"32 5 5 1",
" 	c None",
".	c #000000",
"@	c #3E566B s inactive_shadow_2",
"#	c #D5D6D5 s inactive_hilight_1",
"+	c #6EA0CD s inactive_mid_1",
"++++++++++++++++++++++++++++++++",
"################################",
"################################",
"################################",
"@@@@@@@@@@@@@@@@@@@@@@@@@@@@@@@@"};
